<svg width="137" height="137" xmlns="http://www.w3.org/2000/svg" xmlns:xlink="http://www.w3.org/1999/xlink" overflow="hidden"><defs><clipPath id="clip0"><rect x="715" y="334" width="137" height="137"/></clipPath></defs><g clip-path="url(#clip0)" transform="translate(-715 -334)"><path d="M840.184 376.413C835.903 376.413 832.477 384.191 832.477 390.684 832.477 394.637 833.762 397.248 835.717 398.647 836.753 399.298 837.503 400.318 837.815 401.501L836.916 432.026C837.036 433.851 838.612 435.233 840.437 435.113 842.094 435.004 843.414 433.684 843.523 432.026L842.624 401.501C842.94 400.316 843.695 399.295 844.736 398.647 846.677 397.22 847.961 394.637 847.961 390.684 847.876 384.191 844.451 376.413 840.184 376.413Z" fill="#C04F15"/><path d="M735.322 376.413 733.895 376.413 733.895 392.111C733.895 392.568 733.524 392.939 733.067 392.939 732.61 392.939 732.239 392.568 732.239 392.111L732.239 376.413 730.084 376.413 730.084 392.111C730.084 392.568 729.714 392.939 729.257 392.939 728.799 392.939 728.429 392.568 728.429 392.111L728.429 376.413 726.231 376.413 726.231 392.111C726.231 392.568 725.861 392.939 725.403 392.939 724.946 392.939 724.576 392.568 724.576 392.111L724.576 376.413 723.149 376.413C722.174 381.111 721.62 385.887 721.493 390.684 721.493 394.651 722.778 397.263 724.718 398.661 725.757 399.313 726.511 400.332 726.831 401.515L725.989 432.012C725.989 433.841 727.471 435.323 729.299 435.323 731.128 435.323 732.61 433.841 732.61 432.012L731.711 401.458C732.027 400.277 732.776 399.258 733.809 398.604 735.764 397.177 737.048 394.594 737.048 390.627 736.826 385.853 736.249 381.101 735.322 376.413Z" fill="#C04F15"/><path d="M828.582 403.799 828.582 370.762C828.605 369.398 827.519 368.274 826.156 368.25 826.137 368.25 826.118 368.25 826.098 368.25 826.098 368.25 821.817 368.407 821.118 380.437L819.891 401.801C819.891 402.885 822.431 403.756 823.387 404.113L822.131 431.612C822.258 433.658 824.019 435.213 826.064 435.086 827.932 434.97 829.422 433.481 829.538 431.612Z" fill="#C04F15"/><path d="M777.792 362.542C756.511 362.542 739.26 379.793 739.26 401.073 739.26 422.353 756.511 439.604 777.792 439.604 799.072 439.604 816.323 422.353 816.323 401.073 816.323 379.793 799.072 362.542 777.792 362.542ZM777.792 431.042C761.24 431.042 747.823 417.624 747.823 401.073 747.823 384.522 761.24 371.104 777.792 371.104 794.343 371.104 807.76 384.522 807.76 401.073 807.76 417.624 794.343 431.042 777.792 431.042Z" fill="#C04F15"/><path d="M803.479 401.073C803.479 415.26 791.978 426.76 777.792 426.76 763.605 426.76 752.104 415.26 752.104 401.073 752.104 386.886 763.605 375.385 777.792 375.385 791.978 375.385 803.479 386.886 803.479 401.073Z" fill="#C04F15"/></g></svg>