<svg width="137" height="137" xmlns="http://www.w3.org/2000/svg" xmlns:xlink="http://www.w3.org/1999/xlink" overflow="hidden"><defs><clipPath id="clip0"><rect x="437" y="334" width="137" height="137"/></clipPath></defs><g clip-path="url(#clip0)" transform="translate(-437 -334)"><path d="M562.184 376.413C557.903 376.413 554.477 384.191 554.477 390.684 554.477 394.637 555.762 397.248 557.717 398.647 558.753 399.298 559.503 400.318 559.815 401.501L558.916 432.026C559.036 433.851 560.612 435.233 562.437 435.113 564.094 435.004 565.414 433.684 565.523 432.026L564.624 401.501C564.94 400.316 565.695 399.295 566.736 398.647 568.677 397.22 569.961 394.637 569.961 390.684 569.876 384.191 566.451 376.413 562.184 376.413Z" fill="#156082"/><path d="M457.322 376.413 455.895 376.413 455.895 392.111C455.895 392.568 455.524 392.939 455.067 392.939 454.61 392.939 454.239 392.568 454.239 392.111L454.239 376.413 452.084 376.413 452.084 392.111C452.084 392.568 451.714 392.939 451.257 392.939 450.799 392.939 450.429 392.568 450.429 392.111L450.429 376.413 448.231 376.413 448.231 392.111C448.231 392.568 447.861 392.939 447.403 392.939 446.946 392.939 446.576 392.568 446.576 392.111L446.576 376.413 445.149 376.413C444.174 381.111 443.62 385.887 443.493 390.684 443.493 394.651 444.778 397.263 446.718 398.661 447.757 399.313 448.511 400.332 448.831 401.515L447.989 432.012C447.989 433.841 449.471 435.323 451.299 435.323 453.128 435.323 454.61 433.841 454.61 432.012L453.711 401.458C454.027 400.277 454.776 399.258 455.809 398.604 457.764 397.177 459.048 394.594 459.048 390.627 458.826 385.853 458.249 381.101 457.322 376.413Z" fill="#156082"/><path d="M550.582 403.799 550.582 370.762C550.605 369.398 549.519 368.274 548.156 368.25 548.137 368.25 548.118 368.25 548.098 368.25 548.098 368.25 543.817 368.407 543.118 380.437L541.891 401.801C541.891 402.885 544.431 403.756 545.387 404.113L544.131 431.612C544.258 433.658 546.019 435.213 548.064 435.086 549.932 434.97 551.422 433.481 551.538 431.612Z" fill="#156082"/><path d="M499.792 362.542C478.511 362.542 461.26 379.793 461.26 401.073 461.26 422.353 478.511 439.604 499.792 439.604 521.072 439.604 538.323 422.353 538.323 401.073 538.323 379.793 521.072 362.542 499.792 362.542ZM499.792 431.042C483.24 431.042 469.823 417.624 469.823 401.073 469.823 384.522 483.24 371.104 499.792 371.104 516.343 371.104 529.76 384.522 529.76 401.073 529.76 417.624 516.343 431.042 499.792 431.042Z" fill="#156082"/><path d="M525.479 401.073C525.479 415.26 513.978 426.76 499.792 426.76 485.605 426.76 474.104 415.26 474.104 401.073 474.104 386.886 485.605 375.385 499.792 375.385 513.978 375.385 525.479 386.886 525.479 401.073Z" fill="#156082"/></g></svg>