<svg width="136" height="137" xmlns="http://www.w3.org/2000/svg" xmlns:xlink="http://www.w3.org/1999/xlink" overflow="hidden"><defs><clipPath id="clip0"><rect x="994" y="334" width="136" height="137"/></clipPath></defs><g clip-path="url(#clip0)" transform="translate(-994 -334)"><path d="M124.27 42.1033C120.02 42.1033 116.62 49.8242 116.62 56.27 116.62 60.1942 117.895 62.7867 119.836 64.175 120.864 64.8211 121.609 65.8339 121.918 67.0083L121.026 97.3108C121.145 99.122 122.71 100.494 124.521 100.375 126.166 100.267 127.477 98.9562 127.585 97.3108L126.692 67.0083C127.006 65.8316 127.755 64.8185 128.789 64.175 130.716 62.7583 131.991 60.1942 131.991 56.27 131.906 49.8242 128.506 42.1033 124.27 42.1033Z" fill="#7030A0" transform="matrix(1 0 0 1.00735 994 334)"/><path d="M20.1733 42.1033 18.7567 42.1033 18.7567 57.6867C18.7567 58.1404 18.3888 58.5083 17.935 58.5083 17.4812 58.5083 17.1133 58.1404 17.1133 57.6867L17.1133 42.1033 14.9742 42.1033 14.9742 57.6867C14.9742 58.1404 14.6063 58.5083 14.1525 58.5083 13.6987 58.5083 13.3308 58.1404 13.3308 57.6867L13.3308 42.1033 11.1492 42.1033 11.1492 57.6867C11.1492 58.1404 10.7813 58.5083 10.3275 58.5083 9.8737 58.5083 9.50583 58.1404 9.50583 57.6867L9.50583 42.1033 8.08917 42.1033C7.12168 46.7674 6.57173 51.5083 6.44583 56.27 6.44583 60.2083 7.72083 62.8008 9.6475 64.1892 10.6783 64.8359 11.4271 65.8477 11.7442 67.0225L10.9083 97.2967C10.9083 99.1118 12.3798 100.583 14.195 100.583 16.0102 100.583 17.4817 99.1118 17.4817 97.2967L16.5892 66.9658C16.9028 65.7933 17.6463 64.7818 18.6717 64.1325 20.6125 62.7158 21.8875 60.1517 21.8875 56.2133 21.6671 51.474 21.0942 46.7577 20.1733 42.1033Z" fill="#7030A0" transform="matrix(1 0 0 1.00735 994 334)"/><path d="M112.752 69.2892 112.752 36.4933C112.776 35.14 111.698 34.0238 110.345 34.0003 110.326 34 110.306 33.9999 110.287 34 110.287 34 106.037 34.1558 105.343 46.0983L104.125 67.3058C104.125 68.3825 106.647 69.2467 107.596 69.6008L106.349 96.9C106.475 98.9304 108.223 100.474 110.254 100.348 112.108 100.233 113.586 98.7544 113.702 96.9Z" fill="#7030A0" transform="matrix(1 0 0 1.00735 994 334)"/><path d="M62.3333 28.3333C41.2084 28.3333 24.0833 45.4584 24.0833 66.5833 24.0833 87.7082 41.2084 104.833 62.3333 104.833 83.4582 104.833 100.583 87.7082 100.583 66.5833 100.583 45.4584 83.4582 28.3333 62.3333 28.3333ZM62.3333 96.3333C45.9028 96.3333 32.5833 83.0138 32.5833 66.5833 32.5833 50.1528 45.9028 36.8333 62.3333 36.8333 78.7638 36.8333 92.0833 50.1528 92.0833 66.5833 92.0833 83.0138 78.7638 96.3333 62.3333 96.3333Z" fill="#7030A0" transform="matrix(1 0 0 1.00735 994 334)"/><path d="M87.8333 66.5833C87.8333 80.6666 76.4166 92.0833 62.3333 92.0833 48.2501 92.0833 36.8333 80.6666 36.8333 66.5833 36.8333 52.5001 48.2501 41.0833 62.3333 41.0833 76.4166 41.0833 87.8333 52.5001 87.8333 66.5833Z" fill="#7030A0" transform="matrix(1 0 0 1.00735 994 334)"/></g></svg>